# Blender v2.92.0 OBJ File: ''
# www.blender.org
mtllib field.mtl
o AirHockeyTable_AirHockeyTableShader_0
v 53.859612 80.451904 90.666145
v 54.942741 80.451904 86.623848
v -54.942741 80.451904 86.623848
v -53.859612 80.451904 90.666145
v 52.402042 80.451904 94.343086
v -52.402042 80.451904 94.343086
v 50.195560 80.451904 97.289360
v -50.195560 80.451904 97.289360
v 47.249287 80.451904 99.495850
v -47.249287 80.451904 99.495850
v 43.572330 80.451904 100.953423
v -43.572330 80.451904 100.953423
v -39.530037 80.451904 102.036552
v 39.530037 80.451904 102.036552
v -54.942741 80.451904 -86.623833
v 54.942741 80.451904 -86.623833
v 53.859612 80.451904 -90.666122
v -53.859612 80.451904 -90.666122
v 52.402042 80.451904 -94.343071
v -52.402042 80.451904 -94.343071
v 50.195560 80.451904 -97.289352
v -50.195560 80.451904 -97.289352
v 47.249287 80.451904 -99.495834
v -47.249287 80.451904 -99.495834
v 43.572330 80.451904 -100.953407
v -43.572330 80.451904 -100.953407
v 39.530037 80.451904 -102.036545
v -39.530037 80.451904 -102.036545
vt 0.061655 0.788396
vt 0.081089 0.793603
vt 0.081088 0.287532
vt 0.061654 0.292740
vt 0.043976 0.781389
vt 0.043976 0.299748
vt 0.029811 0.770780
vt 0.029811 0.310356
vt 0.019203 0.756615
vt 0.019203 0.324520
vt 0.012195 0.738937
vt 0.012196 0.342198
vt 0.006987 0.361633
vt 0.006987 0.719502
vt 0.914026 0.287531
vt 0.914027 0.793602
vt 0.933461 0.788395
vt 0.933461 0.292739
vt 0.951138 0.781387
vt 0.951139 0.299747
vt 0.965304 0.770779
vt 0.965304 0.310355
vt 0.975912 0.756615
vt 0.975912 0.324519
vt 0.982919 0.738937
vt 0.982919 0.342197
vt 0.988128 0.719503
vt 0.988128 0.361632
vn 0.0000 1.0000 0.0000
usemtl AirHockeyTableShader
s off
f 1/1/1 2/2/1 3/3/1
f 1/1/1 3/3/1 4/4/1
f 5/5/1 1/1/1 4/4/1
f 5/5/1 4/4/1 6/6/1
f 7/7/1 5/5/1 6/6/1
f 7/7/1 6/6/1 8/8/1
f 9/9/1 7/7/1 8/8/1
f 9/9/1 8/8/1 10/10/1
f 11/11/1 9/9/1 10/10/1
f 11/11/1 10/10/1 12/12/1
f 13/13/1 14/14/1 11/11/1
f 13/13/1 11/11/1 12/12/1
f 15/15/1 3/3/1 2/2/1
f 15/15/1 2/2/1 16/16/1
f 17/17/1 18/18/1 15/15/1
f 17/17/1 15/15/1 16/16/1
f 19/19/1 20/20/1 18/18/1
f 19/19/1 18/18/1 17/17/1
f 21/21/1 22/22/1 20/20/1
f 21/21/1 20/20/1 19/19/1
f 23/23/1 24/24/1 22/22/1
f 23/23/1 22/22/1 21/21/1
f 25/25/1 26/26/1 24/24/1
f 25/25/1 24/24/1 23/23/1
f 27/27/1 28/28/1 26/26/1
f 27/27/1 26/26/1 25/25/1
EOF